<svg preserveAspectRatio="none" overflow="visible" style="display: block;" width="6.63384" height="9.36857" viewBox="0 0 6.63384 9.36857" fill="none" xmlns="http://www.w3.org/2000/svg">
<g id="Group">
<path id="Vector" d="M3.34722 0.0291135C3.28515 0.00104733 3.21588 -0.00698301 3.14904 0.00613896C3.0822 0.0192609 3.0211 0.0528831 2.97425 0.102331C2.92866 0.149655 2.89558 0.207592 2.87799 0.270907C2.8604 0.334223 2.85886 0.400922 2.87351 0.464981C2.92216 0.681194 2.94772 0.907236 2.94772 1.13819C2.94772 1.66693 2.81455 2.03744 2.58507 2.34457C2.35214 2.6566 2.01505 2.91065 1.58901 3.19714C1.5823 3.20159 1.57605 3.20669 1.57034 3.21237L1.51874 3.26446C0.979992 3.61203 0.553525 4.1083 0.290944 4.6932C0.028363 5.2781 -0.0590767 5.92656 0.0392061 6.56012C0.137489 7.19368 0.417282 7.78518 0.844726 8.26304C1.27217 8.7409 1.82895 9.08463 2.44768 9.25265C3.06641 9.42067 3.72057 9.40577 4.33101 9.20975C4.94145 9.01373 5.48199 8.645 5.88724 8.14818C6.29248 7.65135 6.54505 7.04773 6.61438 6.41035C6.68371 5.77298 6.56684 5.12916 6.2779 4.55683C6.26878 4.53877 6.25535 4.52325 6.2388 4.51163C6.22224 4.50002 6.20308 4.49267 6.183 4.49024C6.16292 4.48781 6.14256 4.49037 6.12371 4.4977C6.10486 4.50503 6.08811 4.5169 6.07495 4.53226L5.97274 4.65068C5.5413 5.15485 5.1929 5.56222 4.4789 5.74404C4.44844 5.75141 4.42976 5.746 4.41649 5.73765C4.39541 5.72269 4.37972 5.70132 4.37178 5.67672C4.35896 5.64267 4.35557 5.6058 4.36197 5.56999C4.36837 5.53419 4.38432 5.50077 4.40814 5.47328C4.78995 5.05903 5.0612 4.49688 5.15801 3.69738C5.33983 2.1996 4.65924 0.604537 3.34722 0.0291135Z" fill="white"/>
</g>
</svg>
