<svg preserveAspectRatio="none" overflow="visible" style="display: block;" width="256" height="256" viewBox="0 0 256 256" fill="none" xmlns="http://www.w3.org/2000/svg">
<g id="&#208;&#152;&#208;&#186;&#208;&#190;&#208;&#189;&#208;&#186;&#208;&#176;">
<path id="Vector" d="M35.84 117.52C35.84 111.997 40.3172 107.52 45.84 107.52H117.76V138.24H35.84V117.52Z" fill="black" fill-opacity="0.06"/>
<path id="Vector_2" d="M138.24 107.52H220.16V138.24H138.24V107.52Z" fill="black" fill-opacity="0.06"/>
<path id="Vector_3" d="M35.84 148.48H117.76V230.4H46.08C40.4247 230.4 35.84 225.815 35.84 220.16V148.48Z" fill="black" fill-opacity="0.06"/>
<path id="Vector_4" d="M138.24 148.48H220.16V220.16C220.16 225.815 215.575 230.4 209.92 230.4H138.24V148.48Z" fill="black" fill-opacity="0.06"/>
<path id="Vector_5" fill-rule="evenodd" clip-rule="evenodd" d="M128 97.28C128 97.28 112.64 56.32 81.92 56.32C61.44 56.32 51.2 71.68 51.2 81.92C51.2 92.16 61.44 102.4 81.92 102.4H117.76H128V97.28ZM87.04 81.92C81.92 81.92 76.8 78.08 76.8 76.8C76.8 72.96 81.92 71.68 87.04 71.68C97.28 71.68 107.52 81.92 112.64 92.16C102.4 89.6 92.16 84.48 87.04 81.92Z" fill="black" fill-opacity="0.06"/>
<path id="Vector_6" fill-rule="evenodd" clip-rule="evenodd" d="M128 97.28C128 97.28 143.36 56.32 174.08 56.32C194.56 56.32 204.8 71.68 204.8 81.92C204.8 92.16 194.56 102.4 174.08 102.4H138.24H128V97.28ZM168.96 81.92C174.08 81.92 179.2 78.08 179.2 76.8C179.2 72.96 174.08 71.68 168.96 71.68C158.72 71.68 148.48 81.92 143.36 92.16C153.6 89.6 163.84 84.48 168.96 81.92Z" fill="black" fill-opacity="0.06"/>
</g>
</svg>
